<?xml version="1.0" encoding="utf-8"?>
<!-- Generator: Adobe Illustrator 16.0.0, SVG Export Plug-In . SVG Version: 6.00 Build 0)  -->
<!DOCTYPE svg PUBLIC "-//W3C//DTD SVG 1.1//EN" "http://www.w3.org/Graphics/SVG/1.1/DTD/svg11.dtd">
<svg version="1.1" id="圖層_1" xmlns="http://www.w3.org/2000/svg" xmlns:xlink="http://www.w3.org/1999/xlink" x="0px" y="0px"
	 width="50px" height="50px" viewBox="0 0 50 50" enable-background="new 0 0 50 50" xml:space="preserve">
<g>
	<path fill="#13853B" d="M25.578,44.098c-7.828,0-13.84-2.279-17.875-6.779C2.431,31.439,0.549,21.863,2.107,8.853
		c0.049-0.411,0.429-0.708,0.834-0.655C3.353,8.247,3.646,8.62,3.597,9.031C2.092,21.594,3.849,30.773,8.819,36.316
		c3.739,4.168,9.377,6.281,16.76,6.281c0.136,0,0.271,0,0.409-0.003c7.021-0.071,12.304-2.083,15.701-5.979
		c4.619-5.296,6.063-14.215,4.412-27.268c-0.053-0.411,0.238-0.786,0.649-0.838c0.401-0.047,0.786,0.24,0.838,0.65
		c1.708,13.502,0.147,22.806-4.771,28.443c-3.69,4.23-9.348,6.414-16.815,6.491C25.861,44.098,25.719,44.098,25.578,44.098z"/>
</g>
<g>
	<g>
		<path fill="#13853B" d="M14.944,16.365c-0.387,0-0.715-0.297-0.747-0.689c-0.034-0.413,0.274-0.774,0.687-0.808
			c1.94-0.158,3.907-0.289,5.875-0.42c1.942-0.129,3.886-0.259,5.802-0.414c0.405-0.022,0.774,0.274,0.809,0.687
			c0.033,0.413-0.273,0.774-0.688,0.808c-1.923,0.156-3.874,0.286-5.823,0.416c-1.959,0.131-3.919,0.261-5.853,0.418
			C14.985,16.364,14.964,16.365,14.944,16.365z"/>
	</g>
	<g>
		<path fill="#13853B" d="M13.067,21.786c-0.384,0-0.711-0.294-0.746-0.684c-0.037-0.413,0.269-0.776,0.681-0.813
			c7.889-0.698,16.01-0.768,24.822-0.209c0.414,0.026,0.728,0.382,0.701,0.796c-0.025,0.415-0.402,0.73-0.795,0.701
			c-8.737-0.553-16.782-0.485-24.598,0.207C13.111,21.785,13.089,21.786,13.067,21.786z"/>
	</g>
	<g>
		<path fill="#13853B" d="M20.262,21.056c-0.402,0-0.734-0.318-0.749-0.723c-0.052-1.455-0.13-2.883-0.208-4.312
			c-0.078-1.438-0.157-2.877-0.209-4.341c-0.015-0.414,0.309-0.762,0.723-0.776c0.416-0.029,0.761,0.309,0.776,0.723
			c0.052,1.455,0.13,2.884,0.208,4.313c0.079,1.438,0.157,2.876,0.209,4.34c0.015,0.414-0.309,0.762-0.723,0.776
			C20.28,21.056,20.271,21.056,20.262,21.056z"/>
	</g>
	<g>
		<path fill="#13853B" d="M14.005,26.895c-0.405,0-0.739-0.322-0.75-0.73c-0.01-0.414,0.317-0.758,0.731-0.769
			c2.121-0.053,4.243-0.133,6.35-0.212c2.036-0.077,4.058-0.153,6.055-0.204c0.459-0.007,0.76,0.317,0.771,0.73
			c0.011,0.414-0.315,0.759-0.729,0.77c-1.993,0.052-4.009,0.127-6.039,0.203c-2.114,0.08-4.242,0.16-6.37,0.213
			C14.018,26.895,14.012,26.895,14.005,26.895z"/>
	</g>
	<g>
		<path fill="#13853B" d="M20.367,36.277c-0.398,0-0.73-0.313-0.749-0.717c-0.22-4.816-0.089-8.442,0.104-12.683
			c0.019-0.414,0.369-0.725,0.783-0.715c0.414,0.019,0.734,0.369,0.715,0.783c-0.191,4.201-0.32,7.792-0.104,12.546
			c0.019,0.414-0.301,0.765-0.715,0.783C20.39,36.277,20.378,36.277,20.367,36.277z"/>
	</g>
	<g>
		<path fill="#13853B" d="M25.371,31.377c-0.184,0-0.366-0.066-0.51-0.2l-4.275-3.961c-0.304-0.282-0.321-0.757-0.04-1.061
			c0.282-0.304,0.756-0.32,1.06-0.039l4.275,3.961c0.303,0.282,0.32,0.757,0.039,1.062C25.773,31.297,25.572,31.377,25.371,31.377z"
			/>
	</g>
	<g>
		<path fill="#13853B" d="M14.111,31.794c-0.294,0-0.573-0.174-0.693-0.462c-0.159-0.382,0.021-0.821,0.404-0.98
			c2.319-0.966,4.412-2.613,6.052-4.767c0.251-0.329,0.723-0.393,1.051-0.142c0.33,0.25,0.393,0.722,0.142,1.052
			c-1.8,2.36-4.106,4.174-6.668,5.241C14.305,31.775,14.207,31.794,14.111,31.794z"/>
	</g>
	<g>
		<path fill="#13853B" d="M35.835,34.453c-1.024,0-2.024-0.751-2.778-2.105c-0.818-1.431-1.441-2.861-2.127-4.567
			c-1.77-4.687-2.76-9.891-2.869-15.069c-0.009-0.414,0.32-0.757,0.734-0.766c0.407-0.022,0.757,0.321,0.766,0.734
			c0.105,5.009,1.063,10.042,2.767,14.555c0.655,1.636,1.257,3.014,2.036,4.375c0.431,0.775,1.097,1.482,1.637,1.322
			c0.482-0.162,0.643-1.197,0.718-1.963c0.041-0.41,0.404-0.721,0.82-0.672c0.412,0.041,0.713,0.408,0.672,0.82
			c-0.088,0.892-0.272,2.747-1.758,3.242C36.246,34.423,36.04,34.453,35.835,34.453z"/>
	</g>
	<g>
		<path fill="#13853B" d="M25.787,34.4c-0.283,0-0.555-0.161-0.682-0.437c-0.172-0.376-0.008-0.821,0.367-0.995
			c3.918-1.809,7.244-5.062,9.127-8.926c0.182-0.371,0.629-0.528,1.002-0.346c0.373,0.182,0.527,0.63,0.347,1.002
			c-2.031,4.17-5.62,7.681-9.847,9.631C26,34.378,25.893,34.4,25.787,34.4z"/>
	</g>
	<g>
		<path fill="#13853B" d="M36.005,18.137c-0.226,0-0.446-0.101-0.596-0.292c-1.001-1.301-2.14-2.654-3.294-3.913
			c-0.28-0.306-0.26-0.78,0.046-1.06c0.307-0.28,0.78-0.258,1.06,0.046c1.184,1.291,2.352,2.678,3.379,4.012
			c0.252,0.328,0.19,0.799-0.139,1.052C36.325,18.086,36.164,18.137,36.005,18.137z"/>
	</g>
</g>
</svg>
